<?xml version="1.0" encoding="UTF-8"?>
<svg id="Layer_4" data-name="Layer 4" xmlns="http://www.w3.org/2000/svg" viewBox="0 0 400 400">
  <defs>
    <style>
      .cls-1 {
        fill: #fff;
      }
    </style>
  </defs>
  <path class="cls-1" d="m95.99,223.37c.34-5.17-.61-11.66.56-18.11,1.55-8.45,5.77-15.29,12.67-20.33,2.13-1.55,3.07-3.14,3.25-5.78,2.8-42.49,31.73-74.8,73.64-82.39,39.79-7.21,82.33,17.51,95.82,55.67,1.76,4.98,0,9.58-4.3,11.21-4.56,1.73-8.78-.45-10.94-5.7-9.88-23.98-27.51-38.96-52.77-44.53-40.1-8.83-80.98,21.27-85.04,62.24-.23,2.34.6,2.66,2.54,2.62,4.1-.09,8.2-.1,12.3,0,5.71.14,9.25,3.46,9.27,9.16.09,25,.09,50,0,75-.02,5.69-3.34,8.93-8.93,8.8-7.77-.18-15.62,1-23.31-.83-14.21-3.39-24.43-16.09-24.73-30.67-.11-5.02-.02-10.05-.02-16.37Zm40.47,1.76c0-7.79,0-15.58,0-23.37,0-6.85-.03-6.44-6.77-6.94-8.19-.61-17.45,5.69-17.49,16.84-.03,8.85-.14,17.69.03,26.54.17,9.15,5.4,15.24,14.22,16.79,2.06.36,4.23.04,6.31.29,2.88.35,3.86-.54,3.78-3.61-.23-8.84-.08-17.69-.08-26.54Z"/>
  <path class="cls-1" d="m246.92,229.88c0-13.62-.01-27.24,0-40.86.01-7.6,3.21-10.81,10.9-10.73,7.63.08,15.31-.72,22.82,1.52,13.44,4.02,23.03,16.26,23.28,30.23.17,9.91.19,19.84,0,29.75-.33,17.34-14.46,31.23-31.8,31.5-2.64.04-5.71-.69-7.78.42-2.02,1.08-1.23,4.52-1.92,6.87-3.07,10.53-12.59,17.73-23.96,17.91-7.14.11-14.28.06-21.42,0-1.93-.02-3.28.37-4.66,2.08-5.97,7.35-16.75,7.89-23.6,1.44-6.56-6.17-6.65-17.14-.2-23.48,6.69-6.57,17.52-6.24,23.6.99,1.57,1.87,3.08,2.41,5.33,2.37,7.01-.11,14.02,0,21.02-.05,5.38-.03,8.34-2.93,8.36-8.31.05-13.88.02-27.77.02-41.65Zm16.57-4.76c0,7.92,0,15.84,0,23.76q0,6.42,6.46,6.36c10.33-.09,17.35-6.27,17.71-16.25.34-9.36.28-18.75,0-28.12-.23-7.87-5.11-13.94-12.29-15.56-2.78-.62-5.78-.16-8.66-.44-2.63-.25-3.33.73-3.29,3.3.15,8.98.06,17.95.06,26.93Z"/>
</svg>