<?xml version="1.0" encoding="UTF-8"?>
<svg id="Layer_6" data-name="Layer 6" xmlns="http://www.w3.org/2000/svg" viewBox="0 0 400 400">
  <defs>
    <style>
      .cls-1 {
        fill: #fff;
      }
    </style>
  </defs>
  <path class="cls-1" d="m163.59,294.6c-11.82-.51-26.39.98-40.89-.66-15.78-1.79-28.94-16.39-28.43-32.3.63-19.74,2.09-39.45,3.2-59.18.95-16.84,1.9-33.67,2.86-50.5.19-3.34.76-6.7.53-10.01-.28-4.17,1.7-4.64,5.16-4.53,7.41.23,14.85-.16,22.26.17,3.81.17,4.64-1.16,4.45-4.66-.34-6.38-.11-12.75,1.61-18.99,4.8-17.49,21.04-29.37,39.46-28.76,17.8.59,33.04,13.87,36.7,31.63,1.17,5.66.68,11.3.67,16.93,0,3.14.99,3.9,3.97,3.83,8.14-.19,16.3.06,24.44-.13,2.89-.07,3.75.92,3.88,3.68.83,17.71,1.83,35.41,2.7,53.12.46,9.25.4,9.26,9.35,10.3,26.83,3.14,46.47,21.68,49.79,48.47,2.85,23.01-8.49,45.2-30.71,56.26-21.13,10.52-47.3,5.89-63.37-11.22-2.42-2.57-4.75-3.58-8.25-3.52-12.22.22-24.44.08-39.38.08Zm-2.16-13.66c11.2,0,22.41-.19,33.6.1,4.21.11,4.48-1.1,3.14-4.58-1.66-4.34-2.51-8.95-2.64-13.63-.69-25.53,11.67-44.74,35.51-55.06,1.65-.72,2.55-1.24,2.41-3.34-1.09-16.97-2.06-33.94-2.98-50.92-.1-1.81-.6-2.63-2.51-2.6-4.65.07-9.31.08-13.96,0-2.04-.04-2.85.69-2.79,2.79.12,3.92-.05,7.86.05,11.78.08,3.24-2.38,2.76-3.92,2.34-3.1-.85-7.3,2.73-9.33-2.21-.26-.62-.05-1.44-.05-2.17,0-3.05-.11-6.12.03-9.16.11-2.35-.54-3.41-3.13-3.39-15.13.09-30.26.09-45.39,0-2.64-.02-3.17,1.12-3.1,3.41.12,3.63-.05,7.27.05,10.91.06,2.12-.91,3.06-2.87,2.68-3.61-.7-7.72,1.87-10.83-1.6-.44-.49-.09-1.69-.1-2.57,0-3.35-.1-6.7.03-10.04.08-2.1-.73-2.83-2.79-2.78-4.36.1-8.73.12-13.09,0-2.41-.07-3.3.83-3.42,3.26-.8,15.67-1.71,31.33-2.6,46.99-1.06,18.72-1.96,37.45-3.27,56.15-.96,13.63,7.6,23.51,21.19,23.62,10.91.09,21.82.02,32.73.02Zm88.94-63.21c-20.16-.29-41.36,15.59-41.52,41.59-.14,23.85,18.2,41.67,41.61,42.09,22.76.4,41.9-19.07,41.86-41.97-.04-23.09-18.83-41.76-41.95-41.71Zm-78.52-80.24c7.7,0,15.41-.06,23.11.04,2.21.03,3.16-.61,3.05-2.95-.16-3.63.11-7.27-.1-10.9-.69-11.67-8.5-21.41-19.24-24.23-10.85-2.84-22.28,1.76-28.41,11.23-5.13,7.93-3.74,16.76-3.72,25.39,0,1.98,1.9,1.38,3.07,1.39,7.41.05,14.82.03,22.24.02Z"/>
  <path class="cls-1" d="m232,250.62c.6.84,1.13,1.71,1.79,2.47,2.66,3.07,5.47,6.03,8.02,9.19,1.5,1.85,2.46,1.68,4,.04,6.67-7.09,13.53-14,20.15-21.14,2.07-2.23,3.31-2.77,5.79-.3,6.76,6.74,6.91,6.61.38,13.39-8.66,9-17.46,17.89-25.95,27.05-2.5,2.7-3.69,2.24-5.81-.29-5.3-6.35-10.77-12.59-16.45-18.61-2.34-2.48-2-3.87.53-5.68,2-1.43,3.72-3.24,5.59-4.85.42-.36.93-.62,1.95-1.29Z"/>
</svg>