<?xml version="1.0" encoding="UTF-8"?>
<svg id="Layer_9" data-name="Layer 9" xmlns="http://www.w3.org/2000/svg" viewBox="0 0 400 400">
  <defs>
    <style>
      .cls-1 {
        fill: #fff;
      }
    </style>
  </defs>
  <path class="cls-1" d="m298.53,197.52c0,18.08,0,36.16,0,54.24,0,6.78-2.5,9.24-9.4,9.28-25.04.15-49.17,4.59-71.87,15.54-3.86,1.86-7.6,4-11.23,6.3-3.43,2.17-6.79,2.25-10.04.12-25.27-16.56-53.52-22.3-83.17-23.07-9.72-.25-11.34-2.01-11.34-11.83,0-34.72.05-69.44-.06-104.17-.01-4.34,1.13-7.64,4.6-10.48,5.88-4.81,11.51-9.94,17.12-15.07,2.25-2.06,4.58-2.89,7.69-2.9,26.92-.09,49.26,10.12,67.38,29.77,2.03,2.2,2.81,1.69,4.49-.17,15.43-17.12,34.86-26.56,57.58-29.37,3.82-.47,7.74-.13,11.61-.11,1.85,0,3.19,1.12,4.47,2.28,6.28,5.68,12.5,11.41,18.83,17.03,2.44,2.17,3.39,4.7,3.38,7.96-.09,18.22-.05,36.44-.04,54.67Zm-105.7,57.2c1.01-.88.64-1.8.64-2.59.02-29.26,0-58.53.07-87.79,0-2.38-.95-4.07-2.3-5.78-13.25-16.79-30.52-26.33-51.73-28.93-2.61-.32-2.81.69-2.8,2.74.04,30.7.04,61.39,0,92.09,0,2.05.39,2.88,2.76,3.15,14.61,1.67,27.94,6.77,39.94,15.35,4.87,3.48,9.1,7.67,13.43,11.75Zm14.46.39c.87-.57,1.01-.63,1.1-.73,14.66-15.39,32.46-24.52,53.65-26.81,2.22-.24,2.01-1.53,2.01-2.95,0-30.82,0-61.65.02-92.47,0-1.9-.24-2.79-2.61-2.5-21.18,2.65-38.42,12.25-51.76,28.92-1.79,2.24-2.48,4.55-2.47,7.44.1,28.1.06,56.2.06,84.3v4.81Zm-84.42-116.11c-2.79,2.33-6.9,3.05-6.9,7.37.04,32.14.04,64.27-.02,96.41,0,2.24.71,2.85,2.9,3,11.11.77,22.23,1.71,33.11,4.24,6.25,1.45,12.43,3.18,19.22,4.93-9.34-8.04-25.19-13.49-39.1-13.7-6.92-.11-9.21-2.42-9.21-9.37,0-29.41,0-58.82,0-88.23,0-1.55,0-3.1,0-4.64Zm107.13,115.75c16.34-4.94,32.99-7.98,50-8.75,4.19-.19,4.93-1.63,4.91-5.56-.19-30.56-.1-61.12-.1-91.68,0-5.28-1.57-7.52-6.88-9.7v4.78c0,29.56,0,59.11,0,88.67,0,6.12-2.48,8.68-8.55,8.7-3.46.01-6.87.35-10.26.93-10.71,1.83-20.51,5.76-29.11,12.61Z"/>
</svg>