<?xml version="1.0" encoding="UTF-8"?>
<svg id="Layer_8" data-name="Layer 8" xmlns="http://www.w3.org/2000/svg" viewBox="0 0 400 400">
  <defs>
    <style>
      .cls-1 {
        fill: #fff;
      }
    </style>
  </defs>
  <path class="cls-1" d="m158.06,121.06c14.13-.51,25.09,6.18,35.09,15.25,6.78,6.14,6.9,6.08,13.66.07,7.89-7.02,16.33-12.66,27.08-14.79,23.81-4.71,48.55,11.8,53.12,35.97,1.9,10.07.75,19.75-3.76,28.98-2.76,5.64-7.59,7.68-12.37,5.31-4.71-2.33-6.07-7.21-3.57-12.73,7.78-17.17-.57-35.26-18.72-39.75-8.72-2.15-17.05-.52-24.17,5.31-5.6,4.58-11.09,9.32-16.56,14.07-5.82,5.05-9.83,5.1-15.54.14-5.17-4.48-10.35-8.95-15.61-13.32-11.8-9.8-28.65-9.19-38.96,1.34-10.42,10.65-10.83,26.84-.6,38.61,16.54,19.03,33.3,37.88,49.97,56.8,3.55,4.03,7.17,7.99,10.58,12.13,1.66,2.01,2.61,2.2,4.57.13,4.98-5.27,12.65-3.78,14.95,2.66,1.2,3.36.37,6.35-1.89,8.97-2.72,3.15-5.44,6.29-8.28,9.33-4.59,4.93-9.64,4.98-14.15-.11-14.79-16.65-29.48-33.39-44.19-50.11-8.77-9.97-17.66-19.85-26.24-29.98-21.98-25.97-7.02-67.34,26.42-73.54,3.07-.57,6.1-.7,9.17-.73Z"/>
  <path class="cls-1" d="m244.19,215.87c0-2.68-.15-5.37.03-8.03.32-4.56,4.03-7.88,8.54-7.87,4.52.01,8.28,3.33,8.49,7.9.24,5.08.24,10.18.11,15.27-.06,2.53.57,3.58,3.33,3.45,4.81-.22,9.64-.09,14.47-.05,4.71.04,8.25,3.24,8.64,7.71.4,4.65-2.24,8.31-6.93,9.32-5.03,1.08-10.15.49-15.22.4-3.23-.05-4.56.7-4.33,4.19.3,4.4.16,8.84.02,13.26-.17,5.35-3.48,8.69-8.44,8.78-5.15.09-8.62-3.29-8.8-8.82-.14-4.42-.28-8.86.03-13.26.25-3.54-1.19-4.29-4.37-4.13-4.41.23-8.85.23-13.26-.03-4.74-.28-7.98-2.99-8.71-6.95-.73-3.95.63-7.11,3.98-9.36,1.38-.92,2.91-1.17,4.57-1.15,4.42.07,8.87-.27,13.26.11,3.91.34,4.89-1.22,4.5-4.72-.22-1.98-.04-4.02-.04-6.03h.11Z"/>
</svg>