<?xml version="1.0" encoding="UTF-8"?>
<svg id="Layer_3" data-name="Layer 3" xmlns="http://www.w3.org/2000/svg" viewBox="0 0 400 400">
  <defs>
    <style>
      .cls-1 {
        fill: #fff;
      }
    </style>
  </defs>
  <path class="cls-1" d="m209.17,329.88c-8.94,0-17.89.14-26.82-.11-1.94-.05-4.33-1.05-5.68-2.42-6.04-6.15-11.83-12.54-17.63-18.93-19.15-21.1-14.68-53.05,9.79-67.52,4.67-2.76,6.14-5.64,6.02-10.83-.35-15.01-.27-30.03-.02-45.04.07-3.89-1.16-6.34-4.02-8.92-11.4-10.31-15.32-23.34-11.78-38.16,3.61-15.09,13.4-24.75,28.43-28.6,17.06-4.37,34.62,3.51,43.12,18.93,8.51,15.43,5.68,34.96-7.27,46.92-3.04,2.81-4.05,5.53-3.99,9.46.19,12.78.19,25.56-.01,38.33-.05,3.21,1.11,4.79,3.81,6.28,8.63,4.78,17.71,9.04,25.47,15,16.43,12.61,21.01,35.22,11.19,53.44-5.58,10.37-12.19,20.19-18.55,30.12-.72,1.13-2.81,1.93-4.28,1.96-9.26.17-18.52.09-27.78.09Zm-34.43-75.06c-13.91,9.43-16.88,28.19-6.85,40.99,4.91,6.26,10.57,11.95,16.11,17.69,1.02,1.06,3.05,1.61,4.62,1.62,13.25.13,26.5.18,39.75-.06,1.79-.03,4.18-1.4,5.2-2.89,4.07-5.91,7.75-12.08,11.49-18.21,9.56-15.68,4.98-33-11.13-41.96-8.62-4.8-17.25-9.6-26.01-14.14-2.84-1.47-3.74-3.23-3.65-6.35.23-8.14.08-16.29.08-24.43,0-11.98.05-23.95-.05-35.93-.04-4.47-2.92-7.32-7.03-7.43-4.16-.11-7.12,2.63-7.49,7.01-.13,1.59-.08,3.19-.08,4.79,0,28.74,0,57.48,0,86.23,0,1.83,0,3.65,0,5.4h-14.95v-12.34Zm41.68-95.19c6.66-7.38,5.41-21.15-2.68-29.46-8.93-9.17-23.59-9.61-33.21-1-9.09,8.13-10.65,22.28-3.47,31.39,11.03-16.37,29.7-14.89,39.37-.93Z"/>
  <path class="cls-1" d="m263.93,218.06c-3.4-3.58-6.57-6.91-9.75-10.25,32.33-31.39,34.77-85.16,1.7-119.74,3.33-3.32,6.65-6.65,9.98-9.98,38.83,37.96,37.7,103.17-1.94,139.97Z"/>
  <path class="cls-1" d="m137.66,206c-3.59,3.56-6.84,6.78-10.09,10-35.11-32.15-41.23-96.94-.55-137.74,3.22,3.39,6.45,6.79,10.02,10.54-15.04,15.83-23.41,35.37-23.45,58.05-.04,22.7,8.04,42.35,24.06,59.14Z"/>
  <path class="cls-1" d="m148.28,98.84c3.47,3.44,6.74,6.69,10.32,10.25-10.13,10.62-15.53,23.29-15.59,37.85-.06,14.59,5.27,27.3,15.15,37.77-3.55,3.47-6.92,6.77-10.32,10.09-24.97-23.24-27.19-68.75.44-95.96Z"/>
  <path class="cls-1" d="m245.36,195.04c-3.68-3.49-7.01-6.65-10.33-9.81,19.98-22.31,20.53-53.34-.08-76.28,3.33-3.36,6.66-6.71,9.98-10.07,26.42,24.51,26.39,72.13.42,96.15Z"/>
</svg>