<?xml version="1.0" encoding="UTF-8"?>
<svg id="Layer_1" data-name="Layer 1" xmlns="http://www.w3.org/2000/svg" viewBox="0 0 400 400">
  <defs>
    <style>
      .cls-1 {
        fill: #fff;
      }
    </style>
  </defs>
  <path class="cls-1" d="m142.73,257.3c.3-5.68,2.25-9.42,3.38-13.37,2.07-7.24.24-10.73-6.94-12.41-2.9-.68-5.81-1.3-8.72-1.93-5.29-1.13-7.45-3.58-7.49-8.88-.07-8.66-.02-17.33-.02-25.99,0-4.64,2.23-7.47,6.82-8.42,3.25-.67,6.51-1.33,9.74-2.11,6.49-1.58,8.73-5.52,6.78-11.89-.96-3.16-2.19-6.25-3.01-9.44-1.15-4.45-.23-8.05,4.24-10.5,7.29-3.99,14.38-8.35,21.6-12.47,5.22-2.99,8.1-2.44,12.27,2.13,2.25,2.46,4.38,5.04,6.74,7.38,3.75,3.73,8.08,3.77,11.86.06,2.61-2.56,4.95-5.4,7.39-8.14,3.25-3.65,6.94-4.17,11.15-1.71,7.32,4.29,14.61,8.63,22.01,12.76,4.61,2.57,5.61,6.27,4.15,10.97-1.04,3.34-2.33,6.59-3.26,9.96-1.39,5.04.76,8.94,5.83,10.41,3.66,1.06,7.42,1.8,11.15,2.58,4.4.92,6.62,3.6,6.64,8.04.04,9,.02,17.99,0,26.99,0,4.76-2.68,7.29-7.11,8.24-3.4.73-6.83,1.31-10.2,2.11-5.18,1.24-7.73,5.44-6.33,10.58.92,3.37,2.17,6.64,3.26,9.96,1.55,4.75.41,8.48-4.07,11.04-7.36,4.21-14.71,8.42-22.01,12.72-4.47,2.64-8.21,1.85-11.53-1.96-2.19-2.51-4.34-5.06-6.66-7.45-4.18-4.3-8.82-4.23-12.95.16-2.39,2.55-4.63,5.24-6.97,7.84-2.97,3.3-6.48,3.94-10.33,1.74-7.65-4.36-15.28-8.78-22.87-13.25-2.7-1.59-4.77-3.7-4.52-5.76Zm107.11-48.16q0-8.52-7.18-10.59c-12.27-3.54-19.94-16.37-16.09-28.5,1.78-5.63.95-8.7-4.49-10.57-.46-.16-.92-.43-1.29-.75-3.66-3.2-6.27-2.57-9.66,1.13-9.13,9.96-23.39,10.32-33.01,1.43q-5.9-5.45-12.7-1.49c-.29.17-.54.43-.85.52-4.48,1.44-4.78,4.06-3.41,8.34,4.25,13.32-2.95,26.79-16.36,29.8-5.78,1.29-7.44,3.77-6.54,9.03.08.49.08,1.01,0,1.49-.74,4.68.83,6.82,5.91,7.88,12.42,2.59,19.55,13.96,17.98,26.55-.4,3.18-3.68,6.51-1.34,9.28,2.13,2.52,5.81,3.73,8.8,5.52.14.09.31.14.44.24,1.97,1.6,3.48,1.17,4.96-.83,9.54-12.9,29.15-12.56,38.2.16,1.3,1.82,2.66,2.22,4.58.83,1.48-1.07,3.05-2.12,4.74-2.74,5.05-1.85,5.78-4.76,4.17-9.9-3.94-12.62,3.67-26.1,16.52-28.94,5.54-1.22,7.98-3.1,6.61-7.91Z"/>
  <path class="cls-1" d="m300.82,231.04c6.8-35.4,0-67.48-23.39-95.38-14.85-17.71-33.63-29.46-56.1-35.24-5.78-1.49-8.46-5.42-7.21-10.04,1.22-4.51,5.47-6.32,11.34-4.84,47.15,11.9,84.05,52.58,91.64,100.25,2.76,17.34,1.97,34.33-2.01,51.55,2.36.22,3.85-1.34,5.65-1.87,4.14-1.23,7.3.1,9.26,3.76,2.03,3.78,1.17,7.65-2.43,9.61-7.72,4.21-15.66,8.12-23.79,11.44-4.22,1.72-7.69-.66-9.67-4.86-2.97-6.32-6.06-12.58-8.99-18.92-2.29-4.95-1.18-9.07,2.85-11.24,3.85-2.07,7.64-.76,10.6,3.64.51.76.41,2.06,2.25,2.14Z"/>
  <path class="cls-1" d="m106.22,296.21c-.96,1.46-.91,3.15-1.17,4.78-.69,4.34-3.66,6.85-7.83,6.67-4.04-.17-7.35-3.15-7.15-7.43.39-8.64,1.03-17.29,2.09-25.87.44-3.54,3.18-5.94,7.08-5.75,7.64.37,15.29.76,22.88,1.57,5.9.63,8.26,3.35,8.05,8.14-.19,4.54-3.24,7.03-8.88,7.27-.61.03-1.21.09-2.72.21,8.12,8.12,16.86,13.98,26.35,18.73,42.04,21.04,92.36,12.99,125.93-20.06.36-.35.7-.71,1.06-1.06,4.75-4.62,9.05-5.1,12.56-1.42,3.35,3.51,2.81,7.79-1.59,12.25-14.64,14.83-31.78,25.71-51.83,31.49-45.44,13.11-86.04,3.93-121.66-27.21-.75-.66-1.46-1.36-2.24-1.99-.24-.19-.61-.22-.94-.33Z"/>
  <path class="cls-1" d="m160.02,86.07c-1.05-2.33-3.03-2.79-4.29-4.05-3.08-3.09-3.59-7.18-.96-10.36,2.67-3.22,6.2-4.25,9.79-1.95,7,4.48,13.88,9.19,20.61,14.06,3.6,2.6,4.05,7.09,1.38,11.13-3.94,5.97-8,11.87-12.16,17.7-3.11,4.35-7.59,5.39-11.16,2.86-3.83-2.71-4.34-6.44-1.55-11.4.33-.58.61-1.18,1.09-2.13-3.94.18-7.21,1.74-10.42,3.18-39.94,17.93-62.61,48.52-67.55,92.17-1.51,13.3.34,26.21,3.69,39,.94,3.58.45,6.61-2.44,9.02-2.44,2.03-5.28,1.95-8.01.9-3.4-1.3-4.17-4.58-4.92-7.64-9.47-38.27-3-73.67,19.97-105.71,16.66-23.24,39.16-38.6,66.92-46.78Z"/>
  <path class="cls-1" d="m193.83,238.57c-16.67-.06-30.35-13.76-30.56-30.6-.2-16.65,13.98-31.03,30.67-31.12,16.66-.09,30.89,14.2,30.86,31-.02,16.92-14,30.78-30.98,30.72Zm15.36-30.83c-.03-8.82-6.58-15.24-15.46-15.16-8.47.07-14.94,6.7-14.91,15.28.02,8.33,6.82,15.32,15.03,15.48,8.32.16,15.38-7.01,15.35-15.6Z"/>
</svg>