<?xml version="1.0" encoding="UTF-8"?>
<svg id="Layer_2" data-name="Layer 2" xmlns="http://www.w3.org/2000/svg" viewBox="0 0 400 400">
  <defs>
    <style>
      .cls-1 {
        fill: #fff;
      }
    </style>
  </defs>
  <path class="cls-1" d="m313.76,200.22c0,30.25,0,60.49,0,90.74,0,14.95-7.81,22.8-22.69,22.8-60.78,0-121.56.01-182.34,0-14.58,0-22.47-7.93-22.47-22.58-.01-60.78-.01-121.56,0-182.34,0-14.65,7.89-22.58,22.47-22.58,60.93-.01,121.85-.01,182.78,0,14.3,0,22.25,8,22.26,22.36.02,30.54,0,61.07,0,91.61Zm-212.47-.21c0,30.24,0,60.48,0,90.72,0,6.48,1.48,7.96,7.89,7.98,10.56.03,21.12.01,31.69,0q5.69,0,5.7-5.57c0-41.09,0-82.18.01-123.27,0-4.04.08-8.08,1.93-11.85,4.42-9,12.11-11.52,21.48-11.5,41.38.1,82.76,0,124.14.11,3.54,0,4.74-.91,4.66-4.58-.23-10.7-.07-21.41-.08-32.12,0-7.34-1.29-8.65-8.54-8.65-60.04,0-120.09,0-180.13,0-7.54,0-8.75,1.23-8.75,8.87,0,29.95,0,59.9,0,89.85Zm60.47,31.32c0,21.12.08,42.24-.08,63.36-.02,3.3.92,4.15,4.14,4.1,12.29-.18,24.59-.21,36.88.01,3.84.07,5.16-.82,5.11-4.95-.22-21.41.35-42.83-.27-64.22-.38-13.04,9.37-22.43,21.96-22.08,21.68.61,43.39.1,65.09.24,3.21.02,4.24-.8,4.19-4.09-.18-12.44-.25-24.88.03-37.32.09-4-1.22-4.7-4.89-4.68-41.51.13-83.03.08-124.55.08-6.49,0-7.62,1.11-7.62,7.5-.01,20.69,0,41.37,0,62.06Zm100.52-8.73c-10.99,0-21.97-.04-32.96.02-4.9.02-6.7,1.69-6.71,6.41-.05,22.12.02,44.23-.08,66.35-.01,2.72.89,3.4,3.48,3.39,21.97-.08,43.94-.01,65.91-.08,5.05-.01,6.75-1.76,6.76-6.89.06-21.97-.02-43.94.08-65.91.01-2.75-.98-3.37-3.53-3.34-10.98.12-21.97.05-32.96.05Z"/>
  <path class="cls-1" d="m129.05,118.98c.02,5.14-4.14,9.49-9.18,9.63-5.14.14-9.49-4.34-9.45-9.71.05-5.24,4.13-9.3,9.33-9.27,5.23.03,9.29,4.1,9.3,9.35Z"/>
  <path class="cls-1" d="m188.71,178.53c-.02,5.33-3.95,9.28-9.24,9.3-5.28.02-9.42-3.97-9.53-9.18-.11-5.12,4.59-9.86,9.65-9.72,5.13.14,9.14,4.35,9.12,9.6Z"/>
  <path class="cls-1" d="m230.37,239.36c.08-5.38,3.93-9.04,9.44-8.99,5.36.05,9.23,3.97,9.19,9.31-.03,5.22-4.1,9.29-9.33,9.31-5.5.03-9.39-4-9.3-9.64Z"/>
</svg>