<?xml version="1.0" encoding="UTF-8"?>
<svg id="Layer_5" data-name="Layer 5" xmlns="http://www.w3.org/2000/svg" viewBox="0 0 400 400">
  <defs>
    <style>
      .cls-1 {
        fill: #fff;
      }
    </style>
  </defs>
  <path class="cls-1" d="m263.06,256.94c4.28,17.26,1.1,28.38-10.02,36.16-9.55,6.69-22.99,6.6-32.71-.22-11-7.71-14.07-18.71-9.84-35.68h-21.12c1.45,5.9,3.17,11.57,1.83,17.91-3.06,14.49-16.74,25.89-34.03,22.38-16.55-3.35-26.3-20.11-21.4-35.77,1.11-3.56,1.16-5.17-2.9-6.8-9.36-3.75-14.28-11.47-14.69-21.33-.4-9.45,3.68-17.24,12.12-21.96,3-1.68,3.69-3.37,3.42-6.6-2.04-24.89-3.95-49.78-5.76-74.69-.9-12.43-.77-12.44-13.15-12.44-2,0-4.02.13-5.99-.08-4.24-.45-6.96-3.83-6.86-8.28.1-4.44,2.97-7.56,7.45-7.62,8.5-.12,17-.12,25.49,0,4.65.06,7.59,3.24,7.98,8.46.45,6.14.96,12.28,1.02,18.43.04,4.22,1.42,5.68,5.85,5.67,44.82-.16,89.65-.1,134.47-.1,1.5,0,3-.04,4.5.02,7.93.29,11.38,5.57,8.17,12.86-9.03,20.52-18.09,41.02-27.3,61.46-7.62,16.9-4.49,15.93-24.47,15.9-33.16-.04-66.32-.01-99.48,0-2.15,0-4.41-.34-6.4.67-3.28,1.66-4.93,4.42-4.6,8.14.36,4.01,2.83,6.32,6.55,7.23,1.58.39,3.31.22,4.97.22,39.33,0,78.65.03,117.98-.02,4.29,0,7.33,1.43,9.02,5.58,1.43,3.51.05,6.16-2.18,8.57-1.97,2.13-4.73,2.16-7.9,1.92Zm14.11-105.66c-1.03-.21-1.36-.33-1.68-.33-41.97-.02-83.95.03-125.92-.13-4.59-.02-3.7,2.67-3.5,5.16,1.27,16.24,2.71,32.46,3.88,48.71.2,2.75,1.26,3.24,3.65,3.23,31.81-.05,63.63-.04,95.44-.02,1.74,0,3.09-.14,3.96-2.12,7.93-18.05,15.97-36.05,24.17-54.5Zm-101.96,118.28c.04-6.76-5.62-12.6-12.14-12.51-6.47.09-11.95,5.57-12.09,12.09-.14,6.81,5.23,12.53,11.91,12.7,6.6.16,12.28-5.5,12.32-12.29Zm73.73.14c.09-6.78-5.43-12.59-12.02-12.64-6.6-.05-12.21,5.68-12.21,12.46,0,6.58,5.26,12.1,11.76,12.34,6.59.24,12.37-5.39,12.46-12.15Z"/>
</svg>