<?xml version="1.0" encoding="UTF-8"?>
<svg id="Layer_7" data-name="Layer 7" xmlns="http://www.w3.org/2000/svg" viewBox="0 0 400 400">
  <defs>
    <style>
      .cls-1 {
        fill: #fff;
      }
    </style>
  </defs>
  <path class="cls-1" d="m239.4,209.77c5.58-3.61,10.9-1.24,16.42.69,12.07,4.22,24.26,8.09,36.39,12.13,6.85,2.28,7.87,3.67,7.88,10.68,0,9.67.02,19.33-.05,29-.23,30.02-21.43,58.95-50.03,68.55-3.13,1.05-5.85.6-8.7-.5-15.72-6.08-28.32-16.09-37.17-30.44-2.07-3.36-4.26-4.27-7.95-4.24-19.66.16-39.33.15-58.99,0-3.43-.03-4.97.87-4.48,4.43.16,1.14.09,2.34-.04,3.49-.49,4.57-3.64,7.72-7.68,7.73-4.01.01-7.2-3.12-7.74-7.68-.12-.99-.2-2.02-.04-2.99.68-4.16-.97-6.32-4.81-8.43-8.1-4.45-12.51-11.66-12.51-21.19,0-40.33-.04-80.66.04-120.98.03-13.34,10.54-23.99,23.91-24.53,3.49-.14,7.01-.24,10.49-.03,3.09.19,4.02-.99,3.99-4-.13-11.5-.08-23-.04-34.49.04-12.6,5.8-18.36,18.28-18.37,9,0,18-.06,27,.02,9.9.09,16.22,6.34,16.32,16.29.12,11.83.16,23.67-.05,35.49-.07,3.75.72,5.56,4.88,5.08,2.96-.34,5.99-.11,8.99-.02,13.27.41,23.9,9.77,24.4,22.95.69,18.3.33,36.65.47,54.97.01,1.96-.45,4,.82,6.37Zm-124.41.34c0,19.66-.03,39.32.02,58.98.02,6.73,3.8,11.28,10.01,11.33,22.33.17,44.65.06,66.98.1,2.34,0,3.18-.38,2.51-3.12-1.75-7.12-2.48-14.39-2.45-21.75.06-15.66.02-31.32.02-46.99,0-14-.07-27.99.03-41.99.05-6.5,4.2-10.32,9.68-8.99,4.95,1.21,6.12,5.11,6.12,9.61,0,13.66,0,27.33,0,40.99,0,12.02-.03,11.92,11.24,8.19,2.99-.99,4.08-2.35,4.05-5.61-.17-19.33-.06-38.65-.09-57.98-.01-8.6-3.56-12.14-12.15-12.14-27.83-.02-55.65-.02-83.48,0-8.91,0-12.48,3.55-12.49,12.39-.02,18.99,0,37.99,0,56.98Zm170.01,43.35c0-5.52-.16-9.36.05-13.18.16-2.74-.63-4.13-3.43-5.02-11.05-3.47-22.02-7.2-32.99-10.92-1.48-.5-2.71-.69-4.28-.15-11.11,3.82-22.24,7.59-33.43,11.17-2.37.76-3.09,1.91-3.05,4.26.12,6.82-.09,13.66.07,20.48.58,24.74,12.38,42.4,34.11,53.79,2.89,1.52,5.38,1.66,8.39.13,7.06-3.59,13.39-8.05,18.72-13.91,12.5-13.75,16.89-30.16,15.84-46.66ZM153.81,104.61c0,5.65.08,11.31-.04,16.96-.05,2.58.44,3.98,3.51,3.91,7.98-.18,15.96-.15,23.94-.01,2.71.05,3.41-1.1,3.39-3.56-.07-11.47-.09-22.94.02-34.41.03-2.87-1.08-3.72-3.83-3.67-7.81.13-15.63.16-23.44,0-2.98-.06-3.66,1.18-3.59,3.84.14,5.65.04,11.3.04,16.96Z"/>
  <path class="cls-1" d="m176.87,211.12c0,14.31.02,28.62-.03,42.93,0,1.81-.08,3.7-.61,5.4-1.11,3.6-3.72,5.35-7.54,5.16-3.85-.19-6.12-2.28-6.9-5.94-.31-1.45-.35-2.97-.36-4.46-.02-28.79-.01-57.58-.01-86.36,0-.67-.02-1.33.02-2,.35-5.52,3.1-8.44,7.84-8.35,4.62.09,7.51,3.2,7.54,8.7.1,14.98.03,29.95.04,44.93Z"/>
  <path class="cls-1" d="m146,211.54c0,14.48.02,28.96,0,43.45,0,6.18-2.69,9.53-7.59,9.63-5.01.1-7.86-3.07-7.87-9.32-.06-29.46-.06-58.93,0-88.39.01-6.29,2.8-9.46,7.82-9.4,4.91.05,7.63,3.42,7.64,9.6.02,14.81,0,29.63,0,44.44Z"/>
  <path class="cls-1" d="m236.93,285.66c-6.63-.07-17.76-15.74-15.69-21.41,2.05-5.62,9.72-6.92,13.19-1.56,3.48,5.37,6.25,4.45,10.47,1.42,4.59-3.29,9.57-6.04,14.44-8.91,4.62-2.72,8.94-1.93,11.39,1.91,2.46,3.84,1.34,8.24-3.18,11.07-8.74,5.48-17.59,10.78-26.41,16.14-1.43.87-2.89,1.73-4.22,1.33Z"/>
</svg>